<svg xmlns="http://www.w3.org/2000/svg" aria-hidden="true" focusable="false" role="img" viewBox="0 0 31.074 20.464" class="icon" data-v-4f3cedbc=""><path fill="currentColor" d="M29.509 2.31a.97.97 0 00-.964-.9h-17.1a1.034 1.034 0 00.062-.345 1.07 1.07 0 00-1.069-1.069H9.059A1.071 1.071 0 007.99 1.065a1.027 1.027 0 00.027.23c-.613.053-4.993 3.462-6.285 4.805C-.554 8.477-.042 9.464.285 9.779a.868.868 0 00.626.237c.9 0 2.2-1 3.272-2.115a34.31 34.31 0 002.821-3.516c.13-.182.245-.349.354-.508L5.942 19.383a1 1 0 00.254.763.963.963 0 00.709.314h23.2a.963.963 0 00.709-.314 1 1 0 00.255-.763zM3.595 7.334C2.028 8.963 1.022 9.26.861 9.189c-.1-.094-.144-.837 1.469-2.514a42.7 42.7 0 014.777-3.9 35.106 35.106 0 01-3.512 4.559zm3.756 11.758L8.842 2.787h19.333l1.49 16.305z" data-v-4f3cedbc=""></path></svg>